<svg xmlns="http://www.w3.org/2000/svg" viewBox="0 0 120 120">
  <g fill="#FF7A3D"><rect x="5" y="21" width="10" height="10" rx="2"></rect><rect x="16" y="21" width="10" height="10" rx="2"></rect><rect x="5" y="32" width="10" height="10" rx="2"></rect><rect x="93" y="21" width="10" height="10" rx="2"></rect><rect x="104" y="21" width="10" height="10" rx="2"></rect><rect x="104" y="32" width="10" height="10" rx="2"></rect></g>
  <g fill="#F4581C"><rect x="16" y="43" width="10" height="10" rx="2"></rect><rect x="93" y="43" width="10" height="10" rx="2"></rect><rect x="27" y="54" width="10" height="10" rx="2"></rect><rect x="38" y="54" width="10" height="10" rx="2"></rect><rect x="49" y="54" width="10" height="10" rx="2"></rect><rect x="60" y="54" width="10" height="10" rx="2"></rect><rect x="71" y="54" width="10" height="10" rx="2"></rect><rect x="82" y="54" width="10" height="10" rx="2"></rect><rect x="27" y="65" width="10" height="10" rx="2"></rect><rect x="49" y="65" width="10" height="10" rx="2"></rect><rect x="60" y="65" width="10" height="10" rx="2"></rect><rect x="82" y="65" width="10" height="10" rx="2"></rect><rect x="27" y="76" width="10" height="10" rx="2"></rect><rect x="38" y="76" width="10" height="10" rx="2"></rect><rect x="49" y="76" width="10" height="10" rx="2"></rect><rect x="60" y="76" width="10" height="10" rx="2"></rect><rect x="71" y="76" width="10" height="10" rx="2"></rect><rect x="82" y="76" width="10" height="10" rx="2"></rect><rect x="16" y="87" width="10" height="10" rx="2"></rect><rect x="38" y="87" width="10" height="10" rx="2"></rect><rect x="71" y="87" width="10" height="10" rx="2"></rect><rect x="93" y="87" width="10" height="10" rx="2"></rect></g>
  <g fill="#1A1512"><rect x="38" y="65" width="10" height="10" rx="2"></rect><rect x="71" y="65" width="10" height="10" rx="2"></rect></g>
</svg>